<svg xmlns="http://www.w3.org/2000/svg" viewBox="0 0 512 512" width="512" height="512">
  <defs>
    <filter id="emboss" x="-25%" y="-25%" width="150%" height="150%">
      <feDropShadow dx="2.5" dy="2.5" stdDeviation="4" flood-color="#8a90a0" flood-opacity="0.55"/>
      <feDropShadow dx="-2" dy="-2" stdDeviation="4" flood-color="#fff" flood-opacity="0.85"/>
    </filter>
    <linearGradient id="bg" x1="0" y1="0" x2="1" y2="1">
      <stop offset="0%" stop-color="#eaecf0"/>
      <stop offset="100%" stop-color="#cdd1da"/>
    </linearGradient>
    <filter id="bgShadow" x="-10%" y="-10%" width="120%" height="120%">
      <feDropShadow dx="6" dy="6" stdDeviation="12" flood-color="#8a90a0" flood-opacity="0.5"/>
      <feDropShadow dx="-4" dy="-4" stdDeviation="10" flood-color="#fff" flood-opacity="0.8"/>
    </filter>
  </defs>
  <!-- Neumorphic background -->
  <rect x="40" y="40" width="432" height="432" rx="80" ry="80" fill="url(#bg)" filter="url(#bgShadow)"/>
  <!-- Quill mark scaled to fit -->
  <g transform="translate(256, 240) rotate(19) scale(2.4) translate(-100, -100)" filter="url(#emboss)">
    <!-- Dark stroke -->
    <path d="M140,28 C128,42 110,55 90,68 C74,80 62,96 56,116 C52,132 52,150 56,168 L60,174 C60,152 64,134 72,118 C82,100 96,88 112,76 C126,65 136,50 140,36Z"
          fill="none" stroke="#8a90a0" stroke-width="6" stroke-linejoin="round" stroke-linecap="round"/>
    <path d="M138,32 C118,62 94,98 72,135 C62,150 58,166 58,174"
          fill="none" stroke="#8a90a0" stroke-width="3.5" stroke-linecap="round"/>
    <!-- Light stroke (offset for emboss) -->
    <g transform="translate(-1,-1)">
      <path d="M140,28 C128,42 110,55 90,68 C74,80 62,96 56,116 C52,132 52,150 56,168 L60,174 C60,152 64,134 72,118 C82,100 96,88 112,76 C126,65 136,50 140,36Z"
            fill="none" stroke="white" stroke-width="3" stroke-linejoin="round" stroke-linecap="round" opacity="0.5"/>
      <path d="M138,32 C118,62 94,98 72,135 C62,150 58,166 58,174"
            fill="none" stroke="white" stroke-width="2" stroke-linecap="round" opacity="0.45"/>
    </g>
    <!-- Ink dots: grape cluster -->
    <circle cx="58" cy="174" r="3.2" fill="#3b82f6"/>
    <circle cx="55" cy="179.5" r="3.2" fill="#a855f7"/>
    <circle cx="61" cy="179.5" r="3.2" fill="#22c55e"/>
    <circle cx="58" cy="185" r="3.2" fill="#fcbc05"/>
  </g>
</svg>
